<?xml version="1.0" encoding="UTF-8"?>
<!-- Generator: Adobe Illustrator 26.1.0, SVG Export Plug-In . SVG Version: 6.00 Build 0)  -->
<svg xmlns="http://www.w3.org/2000/svg" xmlns:xlink="http://www.w3.org/1999/xlink" version="1.1" id="Layer_1" x="0px" y="0px" viewBox="0 0 1080 1080" style="enable-background:new 0 0 1080 1080;" xml:space="preserve">
<style type="text/css">
	.st0{fill:#E4E5CE;}
	.st1{fill:#FFFFFF;}
	.st2{fill:#E6E6E5;}
	.st3{fill:#231F20;}
	.st4{fill:#7B8067;}
	.st5{fill:#808080;}
	.st6{fill:#4A4D3E;}
	.st7{fill:#4D4E4E;}
</style>
<g>
	<path class="st1" d="M563.1,314.6L461.3,417.4v124.9h-27.8v-28H415V561h138.9c0,10.3,8.3,18.7,18.5,18.7c10.2,0,18.5-8.4,18.5-18.7   h18.5c0,10.3,8.3,18.7,18.5,18.7c10.2,0,18.5-8.4,18.5-18.7H665V417.4L563.1,314.6z M572.4,350.4l72.9,73.6l-72.9,21.9V350.4z    M479.8,542.3V425.1l74.1-74.7v191.9H479.8z M646.5,542.3h-74.1v-21l74.1-22.4V542.3z M646.5,479.4l-74.1,22.4v-36.5l74.1-22.2   V479.4z"></path>
	<g>
		<path class="st1" d="M125,651.9h43c11.6,0,20.5,2.8,26.9,8.4c3.1,2.6,5.5,5.9,7.2,9.6c1.7,3.7,2.5,7.7,2.4,11.7    c0,12.6-7.3,20.9-21.9,24.9c6.9,1,13.3,4.4,17.8,9.8c4.4,5.1,6.8,11.6,6.7,18.4c0.1,4.1-0.8,8.1-2.5,11.8    c-1.7,3.7-4.3,6.9-7.5,9.5c-6.7,5.6-15.7,8.3-26.9,8.3H125V651.9z M143.5,666.3v33.3h22.9c6,0,10.8-1.5,14.2-4.4    c3.4-2.9,5.1-7,5.1-12.2c0-5.2-1.7-9.3-5.1-12.3c-3.4-3-8.1-4.4-14.2-4.4L143.5,666.3z M143.5,749.9h25c6.3,0,11.2-1.6,14.7-4.7    c3.6-3.1,5.4-7.5,5.4-13c0-5.6-1.9-10-5.7-13.3c-3.8-3.3-8.8-4.9-15.1-4.9h-24.3V749.9z"></path>
		<path class="st1" d="M289.4,651.7v14.4h-43.8v34.1h38.9v14.2h-38.9v35.4h43.8v14.4h-62.2V651.7H289.4z"></path>
		<path class="st1" d="M330.6,718.7v45.6h-18.5V651.9H351c12.8,0,22.6,3.2,29.5,9.5c6.9,6.3,10.4,14.3,10.4,24    c0.1,7.4-2.4,14.5-6.9,20.4c-4.6,6-11.7,10-21.2,11.8l29.8,46.7h-22.5l-28.2-45.6H330.6z M330.6,666.3v38H351c7,0,12.3-1.7,15.7-5    c3.5-3.3,5.2-8,5.2-14c0-6-1.7-10.6-5.2-14c-3.5-3.3-8.7-5-15.7-5L330.6,666.3z"></path>
		<path class="st1" d="M464.9,765.2c-15.4,0-28.7-5.4-39.8-16.2c-11.1-10.8-16.7-24.5-16.7-41.2c0-16.7,5.6-30.4,16.7-41.2    c11.1-10.8,24.7-16.3,40.9-16.3c12,0,22.7,2.9,32,8.8c9.3,5.9,16.5,14.7,20.3,25h-22.2c-6.1-11.3-16.1-17-30.2-17    c-11.3,0-20.6,3.7-27.8,11.2c-7.2,7.4-10.8,17.3-10.8,29.5c0,12.3,3.6,22.1,10.8,29.5c7.2,7.4,16.1,11.1,26.8,11.2    c10.7,0,19.2-2.8,25.5-8.5c6.3-5.7,10.1-13.3,11.4-23h-42.3v-14.4h62.1V717c-1.6,13.2-8.1,25.4-18.2,34.2    C493.2,760.6,480.3,765.2,464.9,765.2z"></path>
		<path class="st1" d="M611.3,651.9h18.5v112.4h-18.5v-14.6h-53v14.6h-18.5V651.9h18.5v83.6h53V651.9z"></path>
		<path class="st1" d="M730.2,764.3l-5.4-14.9h-52.6l-5.4,14.9h-19.3l40.4-112.5h21.4l40.4,112.5H730.2z M677.2,735h42.5l-21.2-61    L677.2,735z"></path>
		<path class="st1" d="M767,723.2v-71.3h18.4v71.3c0,8.5,2.2,14.9,6.7,19.2c4.5,4.3,10.8,6.5,18.8,6.4c8.1,0,14.3-2.1,18.8-6.4    c4.5-4.3,6.7-10.7,6.7-19.2v-71.3h18.5v71.3c0,13.6-4.2,24-12.7,31.3c-8.5,7.3-19,10.9-31.6,10.9c-12.6,0-23-3.6-31.3-10.8    C771,747.3,766.9,736.9,767,723.2z"></path>
		<path class="st1" d="M914,665.5c-5.5,0-10,1.4-13.5,4.2c-3.4,2.8-5.2,6.9-5.2,12.2c0,5.3,2.1,9.4,6.2,12.2c4.5,3,9.6,5.1,14.9,6.1    c5.8,1.3,11.7,2.8,17.5,4.4c5.8,1.6,10.9,4.8,14.9,9.3c4.1,4.5,6.2,10.9,6.2,19.2s-3.5,15.7-10.5,22.3c-7,6.6-16.4,9.9-28.2,9.9    c-11.8,0-21.3-2.8-28.7-8.3c-7.4-5.5-11.1-13.1-11.1-22.8h19.8c0.4,5,2.3,8.9,5.5,11.8c3.2,2.9,8,4.4,14.3,4.4    c6.3,0,11.2-1.6,14.8-4.9c1.7-1.4,3.1-3.2,4-5.1c0.9-2,1.4-4.1,1.4-6.3c0-4.4-1.1-7.9-3.3-10.3c-2.3-2.6-5.3-4.5-8.6-5.6    c-3.8-1.3-7.7-2.4-11.6-3.3c-4.2-1-8.5-2.1-12.7-3.4c-4.1-1.2-8-2.9-11.7-5c-3.6-2.2-6.6-5.3-8.6-9c-2.2-3.9-3.3-8.8-3.3-14.5    c0-9.8,3.5-17.7,10.6-23.7c7.1-6,16.3-9,27.6-9c11.3,0,20.3,2.6,27.1,7.8c6.8,5.2,10.5,12.7,11.3,22.5h-20.4    c-0.4-4.2-2.4-8.1-5.5-10.8C923.9,666.9,919.5,665.5,914,665.5z"></path>
	</g>
</g>
</svg>
