<?xml version="1.0" encoding="UTF-8"?>
<!-- Generator: Adobe Illustrator 27.2.0, SVG Export Plug-In . SVG Version: 6.00 Build 0)  -->
<svg xmlns="http://www.w3.org/2000/svg" xmlns:xlink="http://www.w3.org/1999/xlink" version="1.1" id="Warstwa_2_00000128456797138219613630000010848857405287632279_" x="0px" y="0px" viewBox="0 0 5334.1 1230.1" style="enable-background:new 0 0 5334.1 1230.1;" xml:space="preserve">
<style type="text/css">
	.st0{fill:#F0BA49;}
</style>
<g id="Warstwa_3">
	<g>
		<path class="st0" d="M1810,168.3c-247.3,101.3-494.9,203.5-737.7,314.7c-60.1,27.9-120.4,56-176.2,88.5    c-28.6,18.2-64.3,38.2-80.5,67.2c-0.9,3.2-1.1,1.4-0.9,2.6c0.4,1.4,3.9,4.9,9.3,7.9c63.9,28.4,141.6,28.1,211.9,33.2    c66.6,2.9,133.7,3.8,200.8,4.5c7.5,0,8.2,11.6,0.6,12.3c-100.6,10.2-201.8,18.7-303.4,16.2c-51.4-3.6-157.9-1.4-170.7-68.7    c-13.8-139.8,533-331.3,655.5-376.7c127.4-43.6,255.2-86.4,388-113.6c3.3-0.7,6.6,1.5,7.3,4.8    C1814.6,164.3,1812.9,167.3,1810,168.3C1810,168.3,1810,168.3,1810,168.3z"></path>
		<path class="st0" d="M1317.5,554.4c41.8-7.7,81.6-9,123.4-11.8c70.3-2.7,141.3-9.5,211.4,2.3c25.9,7.4,48.4,8.7,71.6,28.8    c17.3,16.1,10.4,41.2-5,53.5c-52.2,39.7-118.6,50-179.7,66.6c-23.7,6.8-51.7,14.9-63.8,34.4c-7.6,33.4,74.6,75.1,102.1,89.2    c126.6,51.2,133,165.9-3.6,206.7c-83.9,24.6-166,29.2-251.1,34.4c-119.1,6.8-250.7,12.7-369.2,13.8c-82.5,1.5-164.9,2-247.3,1    c-6.9-1.2-17.2-3.3-23.7-11.4c-2.5-2.8-4.7-8.2-4.5-13c0.5-9.7,4.4-13,6.4-15.9c17.8-17.6,41.3-24.6,62.9-34.2    c80.2-31.1,162.5-55.3,244.6-80c327.7-95.5,658.6-179.4,989.8-262c3.3-0.9,6.6,1.2,7.5,4.5s-1.2,6.5-4.4,7.4    c-219.7,58.3-439.2,118.1-657.7,180.6c-163.6,47.3-327.4,94.5-488.2,150.2c-43.1,16.7-90.4,29.5-128.3,55.4    c-0.2,0,1.5-0.4,1.8-6.4c0-4.2-2.6-9.1-5.3-10.4c228.3-0.7,493.9-4.9,730.7-43.9c38.7-7.3,77.9-15.9,115-27.8    c21.3-7.7,51-17.5,59.8-38.6c0.9-4.2,0.5-7.6-2.5-13.1c-6.5-12.3-25.3-26.8-41.8-34.8c-62.4-30.2-185.6-94.3-141.1-180.8    c22.6-36.3,63.5-48.2,99.3-54.7c40.8-6.3,79.5-10.9,118.2-24.3c17.3-5.8,40.8-15.6,52.4-24.8c-0.2,0.9,0,2.8,0.5,3.7    c-9-9.5-37.7-18.3-54.6-23.2c-25.7-5.4-52.7-5.5-79.4-7c-80.2-2.6-163.1-7-243.1-2.3c-8,1.7-10.7-10.2-2.7-12l0,0L1317.5,554.4z"></path>
		<g>
			<path class="st0" d="M2386.7,488.4c17.7-2.9,38.7-4.8,61.4-4.8c41.4,0,71,9.8,90.6,28.1c20,18.1,31.7,44,31.7,80     s-11.4,66.4-32.2,87c-21.1,20.8-55.7,32.2-98.9,32.2c-20.6,0-37.9-0.9-52.5-2.5v-220L2386.7,488.4z M2415.7,686.1     c7.4,1.2,18.1,1.4,29,1.4c61.9,0.1,95.2-34.3,95.2-94.7c0.4-52.8-29.5-86.1-90.4-86.1c-14.9,0-26.2,1.4-33.8,2.9V686.1z"></path>
			<path class="st0" d="M2634.4,633.9c0.6,39.4,25.6,55.7,54.9,55.7c20.9,0,33.7-3.7,44.5-8.2l5.2,20.8c-10.2,4.7-28,10.2-53.6,10.2     c-49.3,0-78.9-32.8-78.9-81c0-48.2,28.6-86.6,75.5-86.6c52.4,0,66,46,66,75.5c0,6.1-0.4,10.4-1,13.6h-112.4L2634.4,633.9z      M2719.8,612.9c0.2-18.4-7.5-47.2-40.3-47.2c-29.7,0-42.5,26.9-44.7,47.2H2719.8z"></path>
			<path class="st0" d="M2795.5,591.7c0-16.7-0.5-30-1.4-43.4h25.8l1.6,26.4h0.9c7.9-15.1,26.5-30,53.1-30c22,0,56.5,13.3,56.5,68.3     v95.7h-29v-92.5c0-25.9-9.8-47.7-37.1-47.7c-19.2,0-34,13.6-39.3,30c-1.2,3.6-2,8.7-2,13.5v96.7h-29V591.7L2795.5,591.7z"></path>
			<path class="st0" d="M2989.7,591.7c0-16.7-0.5-30-1.4-43.4h25.8l1.6,26.4h0.9c7.9-15.1,26.5-30,53.1-30c22,0,56.5,13.3,56.5,68.3     v95.7h-29v-92.5c0-25.9-9.8-47.7-37.1-47.7c-19.2,0-34,13.6-39.3,30c-1.2,3.6-2,8.7-2,13.5v96.7h-29V591.7L2989.7,591.7z"></path>
			<path class="st0" d="M3216.3,503.1c0,10-7,18.2-18.6,18.2c-10.6,0-17.7-8.2-17.6-18.2c0-10,7.5-18.2,18.2-18.2s17.9,8,18.1,18.2     H3216.3z M3183.7,708.9V548.5h29v160.4H3183.7z"></path>
			<path class="st0" d="M3267.2,679.1c8.7,5.5,24.1,11.4,38.7,11.4c21.3,0,31.2-10.4,31.2-23.8c0-13.4-8.5-21.4-29.9-29.4     c-29-10.4-42.6-26.3-42.6-45.5c0-25.8,21-47.1,55.5-47.1c16.3,0,30.4,4.4,39.3,9.8l-7.3,21.3c-6.1-3.9-17.9-9.5-32.9-9.5     c-17.2,0-26.5,10-26.5,22c0,13.3,9.5,19.2,30.5,27.4c27.7,10.3,42,24.2,42,48.2c0,28.4-22.1,48.3-60,48.3     c-17.6,0-33.8-4.5-45.1-11.2l7.1-22H3267.2z"></path>
			<path class="st0" d="M3650.1,701.7c-10.4,5.3-31.8,10.7-59.1,10.7c-62.9,0-110.2-39.8-110.2-113.2S3528.1,482,3597.5,482     c27.7,0,45.5,5.9,53.1,9.8l-7.1,23.5c-10.8-5.2-26.4-9.2-45-9.2c-52.5,0-87.3,33.5-87.3,92.3c0,54.7,31.5,89.7,85.7,89.7     c17.8,0,35.6-3.6,47.3-9.2l5.8,23L3650.1,701.7z"></path>
			<path class="st0" d="M3678.5,691.9l72.5-94.3c7.1-9,13.6-16.6,21.1-25.1v-0.7H3685v-23.3h122.5v18.2l-71.9,93.3     c-6.9,8.7-13.5,17-20.6,24.9v0.7h93.6V709h-130.3v-17L3678.5,691.9z"></path>
			<path class="st0" d="M3862.7,633.9c0.6,39.4,25.6,55.7,54.9,55.7c20.9,0,33.7-3.7,44.5-8.2l5.2,20.8c-10.2,4.7-28,10.2-53.6,10.2     c-49.3,0-78.9-32.8-78.9-81c0-48.2,28.6-86.6,75.5-86.6c52.4,0,66,46,66,75.5c0,6.1-0.4,10.4-1,13.6h-112.4L3862.7,633.9z      M3948.1,612.9c0.2-18.4-7.5-47.2-40.3-47.2c-29.7,0-42.5,26.9-44.7,47.2H3948.1z"></path>
			<path class="st0" d="M4051.5,622h0.6c3.9-5.7,9.5-12.8,14-18.3l47.3-55.3h35l-61.9,66l70.7,94.5h-35.5l-55.2-77.1l-14.9,16.7     v60.3h-29V473.3h29V622L4051.5,622z"></path>
			<path class="st0" d="M4283,708.9l-2.6-20.3h-0.9c-8.8,12.5-26.1,24-49,24c-32.4,0-49-23-49-46.1c0-38.8,34.4-60.2,96.5-59.7v-3.4     c0-13-3.7-37.2-36.5-37c-14.9,0-30.6,4.4-41.8,11.9l-6.6-19.4c13.3-8.6,32.7-14,53-14c49,0,61,33.5,61,65.6v60     c0,13.8,0.6,27.4,2.5,38.3h-26.3L4283,708.9z M4278.4,626.9c-31.6-0.6-67.7,5-67.7,36c0,19.2,12.7,27.9,27.3,27.9     c21.1,0,34.4-13.3,39.1-26.9c1-3.1,1.4-6.4,1.4-9.2v-27.9L4278.4,626.9z"></path>
			<path class="st0" d="M4364,473.3h29v235.6h-29C4364,708.9,4364,473.3,4364,473.3z"></path>
			<path class="st0" d="M4452.2,473.3h29v235.6h-29C4452.2,708.9,4452.2,473.3,4452.2,473.3z"></path>
			<path class="st0" d="M4629.4,708.9l-2.6-20.3h-0.9c-8.8,12.5-26.1,24-49,24c-32.4,0-49-23-49-46.1c0-38.8,34.4-60.2,96.5-59.7     v-3.4c0-13-3.7-37.2-36.5-37c-14.9,0-30.6,4.4-41.8,11.9l-6.6-19.4c13.3-8.6,32.7-14,53-14c49,0,61,33.5,61,65.6v60     c0,13.8,0.6,27.4,2.5,38.3h-26.3L4629.4,708.9z M4624.9,626.9c-31.6-0.6-67.7,5-67.7,36c0,19.2,12.5,27.9,27.3,27.9     c21.1,0,34.4-13.3,39.1-26.9c1-3.1,1.4-6.4,1.4-9.2v-27.9V626.9z"></path>
		</g>
	</g>
</g>
</svg>
