<?xml version="1.0" encoding="UTF-8"?>
<svg xmlns="http://www.w3.org/2000/svg" id="Warstwa_2" viewBox="0 0 260.53 182.22">
  <defs>
    <style>.cls-1{fill:#f3ba49;}</style>
  </defs>
  <g id="Warstwa_3">
    <g>
      <g>
        <path class="cls-1" d="M224.99,2.38c-42.9,17.52-86.43,35.67-128.78,54.45-15.03,7.27-63.64,26.78-69.35,39.69,8.61,9.59,68.53,8.65,83.98,9.09,1.5,0,1.64,2.29,.12,2.45-13.34,1.39-26.7,2.51-40.12,3.07-10.15,.4-20.39,.54-30.58-.43-5.39-.59-10.98-1.38-16.15-3.8-5.09-2.22-9.13-7.72-7.25-13.85,1.93-6.33,6.76-10.42,11.15-14.29,13.47-10.77,29-18.51,44.36-25.98,18.25-8.59,36.97-16.1,55.8-23.29,18.83-7.08,37.89-13.51,57.13-19.39C198.15,6.24,211.07,2.58,224.33,.02c.67-.13,1.31,.31,1.44,.98,.12,.6-.22,1.18-.77,1.38h0Z"></path>
        <path class="cls-1" d="M126.96,79.38c8.12-1.48,16.33-1.7,24.54-2.23,8.16-.39,16.32-.82,24.5-.71,5.16,.09,10.4,.13,15.62,.87,.79,.14,1.75,.34,2.54,.58,4.94,1.34,12.6,2.49,14.96,7.86,3.45,10.04-19.42,15.64-26.32,17.75-7.3,2.2-15.54,3.01-22.03,7.14-2.19,1.58-3.78,3.04-2.97,5.54,3.15,7.47,15.83,13.79,23.08,17.32,8.78,3.93,19,12.85,15.53,23.8-4.55,12.33-20.08,15.31-31.35,17.72-16.09,3.13-33.07,3.72-49.4,4.73-36.73,1.96-73.63,2.74-110.31,2.38-1.15-.26-2.1-.34-3.3-1.06-.98-.6-2.14-1.95-2.04-3.42,0-.86,.26-1.47,.49-1.92,1.27-2.12,3.15-3,5.02-4.07,2.7-1.42,5.36-2.53,8.04-3.61,15.94-6.21,32.3-11.04,48.63-15.95,65.24-19.07,131.07-35.84,196.99-52.33,.58-.14,1.17,.21,1.32,.79,.14,.58-.21,1.16-.78,1.31-65.6,17.42-131.18,35.14-196.04,55.12-10.79,3.37-21.55,6.82-32.18,10.54-5.31,1.87-10.6,3.8-15.73,5.93-3.42,1.44-7.59,3.24-9.92,5.08,.07-.13,.2-.4,.21-.91,0-.69-.42-1.53-.88-1.76-.11-.06,.05,.02,.23,.06,30.13,.21,65.69-.8,97.5-3.05,20.12-1.6,40.15-3.49,59.7-8.03,6.54-1.82,20.78-4.47,23.5-11.1,.59-2.49-1.5-4.68-3.47-6.49-2.71-2.5-6.32-4.05-9.61-5.69-5.8-3.01-11.14-6.23-16.28-10.55-10.07-8.11-13.95-20.73-1.13-28.67,7.25-4.33,14.4-4.65,22.12-6.01,8.25-1.58,17.3-3.57,24.34-8.15,.54-.4,.85-.89,.79-.7-.02,.09,0,.38,.07,.48,.06,.1,.06,.01-.08-.14-.89-.91-2.61-1.81-3.99-2.34-2.3-.94-5.04-1.73-7.55-2.47-8.17-1.45-19.16-1.23-27.56-1.67-10.12-.3-20.27-.37-30.4-.19-2.02,.06-4.14,.09-5.99,.35-1.33,.19-1.72-1.81-.4-2.13h0Z"></path>
      </g>
      <path class="cls-1" d="M200.93,90.1c-.16,0-.31-.08-.41-.21-.16-.23-.1-.54,.13-.7,1.43-.99,1.55-1.55,1.53-1.74-.03-.39-.69-.72-1.08-.91-.36-.18-.65-.32-.69-.66-.02-.17,.08-.38,.21-.49,.21-.17,.53-.14,.7,.08,.02,.03,.04,.06,.06,.1,.05,.02,.1,.05,.16,.08,.58,.29,1.56,.77,1.64,1.73,.06,.82-.58,1.68-1.96,2.64-.09,.06-.19,.09-.29,.09Z"></path>
      <path class="cls-1" d="M28.34,98.93c-.05,0-.11,0-.16-.03-.07-.02-1.61-.57-1.96-2.02-.28-1.17,.31-2.52,1.76-4.02,.19-.2,.51-.2,.71-.01,.2,.19,.2,.51,0,.71-1.17,1.21-1.7,2.28-1.51,3.08,.21,.92,1.3,1.31,1.31,1.32,.26,.09,.4,.38,.31,.64-.07,.21-.26,.34-.47,.34Z"></path>
    </g>
  </g>
</svg>
