<svg xmlns="http://www.w3.org/2000/svg" viewBox="700 150 1200 920" width="32" height="32">
<style>.st0{fill:#F0BA49;}</style>
<path class="st0" d="M1810,168.3c-247.3,101.3-494.9,203.5-737.7,314.7c-60.1,27.9-120.4,56-176.2,88.5 c-28.6,18.2-64.3,38.2-80.5,67.2c-0.9,3.2-1.1,1.4-0.9,2.6c0.4,1.4,3.9,4.9,9.3,7.9c63.9,28.4,141.6,28.1,211.9,33.2 c66.6,2.9,133.7,3.8,200.8,4.5c7.5,0,8.2,11.6,0.6,12.3c-100.6,10.2-201.8,18.7-303.4,16.2c-51.4-3.6-157.9-1.4-170.7-68.7 c-13.8-139.8,533-331.3,655.5-376.7c127.4-43.6,255.2-86.4,388-113.6c3.3-0.7,6.6,1.5,7.3,4.8 C1814.6,164.3,1812.9,167.3,1810,168.3C1810,168.3,1810,168.3,1810,168.3z"/>
<path class="st0" d="M1317.5,554.4c41.8-7.7,81.6-9,123.4-11.8c70.3-2.7,141.3-9.5,211.4,2.3c25.9,7.4,48.4,8.7,71.6,28.8 c17.3,16.1,10.4,41.2-5,53.5c-52.2,39.7-118.6,50-179.7,66.6c-23.7,6.8-51.7,14.9-63.8,34.4c-7.6,33.4,74.6,75.1,102.1,89.2 c126.6,51.2,133,165.9-3.6,206.7c-83.9,24.6-166,29.2-251.1,34.4c-119.1,6.8-250.7,12.7-369.2,13.8c-82.5,1.5-164.9,2-247.3,1 c-6.9-1.2-17.2-3.3-23.7-11.4c-2.5-2.8-4.7-8.2-4.5-13c0.5-9.7,4.4-13,6.4-15.9c17.8-17.6,41.3-24.6,62.9-34.2 c80.2-31.1,162.5-55.3,244.6-80c327.7-95.5,658.6-179.4,989.8-262c3.3-0.9,6.6,1.2,7.5,4.5s-1.2,6.5-4.4,7.4 c-219.7,58.3-439.2,118.1-657.7,180.6c-163.6,47.3-327.4,94.5-488.2,150.2c-43.1,16.7-90.4,29.5-128.3,55.4 c-0.2,0,1.5-0.4,1.8-6.4c0-4.2-2.6-9.1-5.3-10.4c228.3-0.7,493.9-4.9,730.7-43.9c38.7-7.3,77.9-15.9,115-27.8 c21.3-7.7,51-17.5,59.8-38.6c0.9-4.2,0.5-7.6-2.5-13.1c-6.5-12.3-25.3-26.8-41.8-34.8c-62.4-30.2-185.6-94.3-141.1-180.8 c22.6-36.3,63.5-48.2,99.3-54.7c40.8-6.3,79.5-10.9,118.2-24.3c17.3-5.8,40.8-15.6,52.4-24.8c-0.2,0.9,0,2.8,0.5,3.7 c-9-9.5-37.7-18.3-54.6-23.2c-25.7-5.4-52.7-5.5-79.4-7c-80.2-2.6-163.1-7-243.1-2.3c-8,1.7-10.7-10.2-2.7-12l0,0L1317.5,554.4z"/>
</svg>
